<svg xmlns="http://www.w3.org/2000/svg" width="363" height="366" viewBox="0 0 363 366">
    <path fill="#FFF" fill-rule="nonzero" d="M0 46.069v155.788a46.176 46.176 0 0 0 13.543 32.569A45.897 45.897 0 0 0 46.08 247.85h23.06v52.822a9.433 9.433 0 0 0 5.802 8.73 9.384 9.384 0 0 0 10.26-2.052l59.058-59.5h11.285v24.826c.02 22.319 17.998 40.436 40.25 40.56h46.418l49.917 49.993a9.384 9.384 0 0 0 10.26 2.052 9.433 9.433 0 0 0 5.803-8.73v-43.315h14.37c22.324-.02 40.416-18.168 40.437-40.56v-118.17c-.02-22.393-18.113-40.54-40.438-40.56h-38.707V46.03c-.042-25.42-20.587-46.01-45.93-46.03H46.08a45.897 45.897 0 0 0-32.563 13.45A46.177 46.177 0 0 0 0 46.069zm323.393 86.969c11.933 0 21.607 9.753 21.607 21.783v118.617c0 12.03-9.674 21.783-21.607 21.783h-23.711c-5.188 0-9.394 4.24-9.394 9.471V335l-36.6-36.824a9.356 9.356 0 0 0-6.652-2.765h-50.24a21.517 21.517 0 0 1-15.467-6.38A21.876 21.876 0 0 1 175 273.438V248.51h63.881c25.302-.021 45.82-20.673 45.882-46.181V133l38.63.038zM20 47.218a27.28 27.28 0 0 1 7.99-19.3A27.033 27.033 0 0 1 47.245 20h191.659C253.869 20 266 32.186 266 47.218v155.868c-.041 15.002-12.16 27.142-27.095 27.142h-97.483a9.374 9.374 0 0 0-6.652 2.755L88.922 279v-39.335c0-2.503-.99-4.903-2.752-6.673a9.374 9.374 0 0 0-6.643-2.764H47.246c-7.2.04-14.119-2.8-19.23-7.892A27.279 27.279 0 0 1 20 203.086V47.218z" opacity=".1"/>
</svg>
