<svg xmlns="http://www.w3.org/2000/svg" width="11" height="12" viewBox="0 0 11 12">
    <g fill="#B9C6D0" fill-rule="evenodd">
        <path d="M2.112 5.71a8.837 8.837 0 0 0 3.844 3.845l1.283-1.283a.58.58 0 0 1 .595-.14c.654.216 1.36.332 2.083.332.32 0 .583.263.583.583v2.036c0 .321-.262.584-.583.584A9.916 9.916 0 0 1 0 1.75c0-.32.263-.583.583-.583h2.042c.32 0 .583.262.583.583 0 .73.117 1.43.333 2.083a.585.585 0 0 1-.146.595L2.112 5.71zM8.225 0l-.583.583c1.05 1.05 1.05 2.684 0 3.792l.583.583C9.683 3.617 9.683 1.4 8.225 0z"/>
        <path d="M7 1.225l-.583.583c.291.409.291.934 0 1.342L7 3.733c.7-.7.7-1.75 0-2.508z"/>
    </g>
</svg>
