<svg xmlns="http://www.w3.org/2000/svg"  viewBox="0 0 58 61">
    <defs>
        <path id="a3" d="M0 61h58V0H0z"/>
    </defs>
    <g fill="none" fill-rule="evenodd">
        <path fill="#000" d="M50.5 51.87l2.657 4.223 2.344-4.188V10.86a.336.336 0 0 0-.335-.337h-4.335a.335.335 0 0 0-.332.337v41.01zM53.283 61L48 52.604V10.86C48 9.282 49.27 8 50.83 8h4.336C56.73 8 58 9.282 58 10.86v41.708L53.284 61z"/>
        <mask id="b3" fill="#fff">
            <use xlink:href="#a3"/>
        </mask>
        <path fill="#000" d="M49 17h8v-3h-8zM49 53h8v-3h-8zM11.556 11.455h17.89V6.364h-4.507c-.96 0-1.779-.697-1.907-1.621a2.559 2.559 0 0 0-5.064-.001c-.128.925-.948 1.622-1.908 1.622h-4.504v5.091zM32 14H9V6.364a2.554 2.554 0 0 1 2.556-2.545h3.994A5.13 5.13 0 0 1 20.5 0a5.127 5.127 0 0 1 4.95 3.82h3.995A2.553 2.553 0 0 1 32 6.363V14z" mask="url(#b3)"/>
        <path fill="#000" d="M40 61H0V8h9.998v2.523H2.5v47.954h35V10.523H30V8h10z" mask="url(#b3)"/>
        <path fill="#000" d="M6 22h4v-3H6zM15 22h19v-3H15zM6 29h4v-3H6zM15 29h19v-3H15zM6 37h4v-3H6zM15 37h19v-3H15zM6 44h4v-3H6zM15 44h19v-3H15zM6 52h4v-3H6zM15 52h19v-3H15z" mask="url(#b3)"/>
    </g>
</svg>
