<svg xmlns="http://www.w3.org/2000/svg" viewBox="0 0 75 55">
    <defs>
        <path id="a" d="M0 .448h74.365V55H0z"/>
    </defs>
    <g fill="none" fill-rule="evenodd">
        <g>
            <mask id="b" fill="#fff">
                <use xlink:href="#a"/>
            </mask>
            <path fill="#000" d="M71.806 52.468H66.44V21.642c0-.698-.573-1.266-1.28-1.266H9.204c-.706 0-1.28.568-1.28 1.266v30.826H2.56V14.684l.094-.065L19.218 3.253l.125.087 17.03 11.689c.112.084.23.147.355.192.133.043.276.068.418.065.142 0 .282-.022.416-.067.122-.041.236-.102.34-.183l17.2-11.783.126.086 16.578 11.345v37.784zM38.532 27.204h25.35v-4.296h-25.35v4.296zm0 6.162h25.35v-3.64h-25.35v3.64zm0 6.165h25.35v-3.64h-25.35v3.64zm0 6.162h25.35v-3.64h-25.35v3.64zm0 6.775h25.35v-4.25h-25.35v4.25zm-2.559 0H33.01V36.885c0-.698-.574-1.266-1.28-1.266H15.123c-.705 0-1.279.568-1.279 1.266v15.583h-3.362v-29.56h25.491v29.56zm-19.57 0H30.45V38.15H16.403v14.317zM73.808 12.97h-.001L55.833.678a1.273 1.273 0 0 0-1.458-.002L37.129 12.48 19.95.677a1.28 1.28 0 0 0-1.46 0L.55 12.968c-.344.237-.55.627-.55 1.042v39.723C0 54.432.574 55 1.28 55h71.806c.706 0 1.28-.568 1.28-1.266V14.02c0-.42-.208-.812-.557-1.05z" mask="url(#b)"/>
        </g>
        <path fill="#000" d="M26.08 44h-6.16c-.508 0-.92-.448-.92-1s.412-1 .92-1h6.16c.507 0 .92.448.92 1s-.413 1-.92 1"/>
    </g>
</svg>
