<svg xmlns="http://www.w3.org/2000/svg" viewBox="0 0 68 61">
    <defs>
        <path id="a2" d="M0 0h68v61H0z"/>
    </defs>
    <g fill="none" fill-rule="evenodd">
        <mask id="b2" fill="#fff">
            <use xlink:href="#a2"/>
        </mask>
        <path fill="#000" d="M18.599 55.826l-4.357 1.248.628 2.172 4.356-1.249-.627-2.171zm4.307-4.078l-2.914 3.46 1.74 1.452 2.91-3.46-1.736-1.452zm4.37-5.194l-2.914 3.46 1.736 1.452 2.913-3.464-1.736-1.448zm-18.21-.79c.639 0 1.134.493 1.134 1.13 0 .637-.495 1.13-1.133 1.13-.64 0-1.134-.493-1.134-1.13 0-.637.494-1.13 1.134-1.13zm25.434-.578l-4.533.023.009 2.259 4.533-.022-.009-2.26zm-25.433-1.68c-1.865 0-3.4 1.53-3.4 3.388 0 1.858 1.535 3.39 3.4 3.39 1.864 0 3.4-1.532 3.4-3.39s-1.536-3.388-3.4-3.388zm39.295-.12c1.138.62 1.73 1.419 1.73 2.132 0 .662-.44 1.375-1.452 1.999-1.011.622-2.526 1.06-4.214 1.06-1.688 0-3.198-.438-4.21-1.06-1.011-.624-1.457-1.337-1.457-2 0-.712.594-1.506 1.73-2.127a92.477 92.477 0 0 0 3.109 3.698c.428.456 1.145.48 1.603.054l.053-.054s1.471-1.646 3.108-3.702zM9.067 40.669c3.789 0 6.8 2.926 6.8 6.516 0 .704-.405 1.918-1.108 3.226-.7 1.31-1.663 2.732-2.633 4.025-1.526 2.033-2.475 3.025-3.06 3.667-.582-.642-1.529-1.633-3.054-3.667-.97-1.293-1.941-2.716-2.644-4.025-.7-1.308-1.102-2.522-1.102-3.226 0-3.59 3.011-6.516 6.8-6.516zm0-2.261C4.092 38.408 0 42.333 0 47.185c0 1.409.587 2.828 1.373 4.294.785 1.466 1.801 2.96 2.815 4.311a62.928 62.928 0 0 0 4.05 4.85 1.136 1.136 0 0 0 1.603.057l.023-.021 2.824-.808L12.152 58c.583-.702 1.137-1.342 1.79-2.21 1.012-1.352 2.032-2.846 2.818-4.312.787-1.466 1.373-2.885 1.373-4.294 0-4.852-4.092-8.777-9.066-8.777zm35.359-6.2c.639 0 1.134.493 1.134 1.13 0 .639-.495 1.13-1.134 1.13-.64 0-1.134-.491-1.134-1.13 0-.637.494-1.13 1.134-1.13zm0-2.259c-1.864 0-3.4 1.532-3.4 3.39 0 1.857 1.536 3.388 3.4 3.388 1.864 0 3.4-1.531 3.4-3.389 0-1.857-1.536-3.389-3.4-3.389zm0-2.837c3.79 0 6.8 2.923 6.8 6.513 0 .703-.405 1.926-1.107 3.234-.701 1.31-1.664 2.727-2.634 4.02-1.527 2.037-2.477 3.032-3.06 3.672-.582-.64-1.532-1.635-3.058-3.672-.97-1.293-1.933-2.71-2.635-4.02-.7-1.308-1.106-2.531-1.106-3.234 0-3.59 3.01-6.513 6.8-6.513zm0-2.259c-4.974 0-9.067 3.919-9.067 8.772 0 1.408.587 2.832 1.373 4.298.666 1.242 1.507 2.486 2.364 3.663-1.51.914-2.603 2.257-2.603 3.932 0 1.65 1.082 3.03 2.532 3.923 1.45.893 3.334 1.394 5.4 1.394 2.068 0 3.956-.501 5.406-1.394 1.45-.894 2.528-2.273 2.528-3.923 0-1.675-1.088-3.022-2.599-3.936.855-1.177 1.695-2.419 2.36-3.659.786-1.466 1.373-2.89 1.373-4.298 0-4.853-4.093-8.772-9.067-8.772zm11.82-3.26l-3.882 2.324 1.165 1.937 3.886-2.324-1.169-1.938zm2.687-14.237c.639 0 1.134.492 1.134 1.13 0 .638-.495 1.13-1.134 1.13-.639 0-1.133-.492-1.133-1.13 0-.638.494-1.13 1.133-1.13zm0-2.26c-1.864 0-3.399 1.532-3.399 3.39s1.535 3.39 3.4 3.39c1.864 0 3.4-1.532 3.4-3.39s-1.536-3.39-3.4-3.39zm0-2.836c3.79 0 6.8 2.922 6.8 6.513 0 .703-.4 1.925-1.102 3.234-.7 1.309-1.673 2.727-2.643 4.02-1.527 2.036-2.472 3.03-3.055 3.671-.582-.64-1.532-1.636-3.058-3.671-.971-1.293-1.933-2.711-2.635-4.02-.7-1.309-1.107-2.531-1.107-3.234 0-3.59 3.011-6.513 6.8-6.513zm0-2.26c-4.974 0-9.066 3.92-9.066 8.773 0 1.408.586 2.832 1.373 4.298.785 1.466 1.806 2.956 2.82 4.306 2.026 2.703 4.045 4.859 4.045 4.859a1.138 1.138 0 0 0 1.656 0s2.024-2.156 4.052-4.86c1.013-1.35 2.03-2.839 2.814-4.305C67.414 11.605 68 10.18 68 8.773 68 3.919 63.908 0 58.933 0z" mask="url(#b2)"/>
    </g>
</svg>
