<svg xmlns="http://www.w3.org/2000/svg" viewBox="0 0 57 66">
    <g fill="none" fill-rule="evenodd">
        <path fill="#000" d="M54.873 53.306c-.659 2.975-3.178 5.094-5.996 5.094H2.281V25.008a5.264 5.264 0 0 1 5.257-5.257h11.343l-2.551 4.66-.451-.294c-1.527-.989-2.76-2.105-3.567-3.227a1.598 1.598 0 0 1-.146-.197c-.032-.048-.045-.073-.061-.088l-.711-.712-.713.712c-.434.433-.518 1.055-.2 1.478.964 1.484 2.459 2.843 4.453 4.056l.406.248-3.016 5.586c-.291.584-.099 1.26.44 1.528.159.102.259.112.597.112.403 0 .819-.235 1.061-.598l3.051-5.669.404.145c2.384.851 4.81 1.283 7.214 1.283 2.581 0 5.07-.442 7.198-1.278l.414-.162 3.08 5.722c.22.383.541.557 1.037.557.153 0 .407-.053.662-.139.48-.245.659-.932.367-1.517l-3.007-5.57.406-.247c1.865-1.136 3.359-2.495 4.442-4.043.327-.434.245-1.059-.189-1.492l-.854-.854h9.664v26.665c0 .63.511 1.141 1.14 1.141a5.428 5.428 0 0 1 5.422 5.421v.328zm-45.097 8.04c-.764 1.34-2.091 2.14-3.55 2.14a3.88 3.88 0 0 1-3.483-2.164l-.361-.724h7.822l-.428.748zM24.845 13.55l6.471 11.834-.579.184a19.709 19.709 0 0 1-5.892.926c-1.951 0-3.99-.32-5.894-.926l-.578-.184 6.472-11.834zm-2.223-6.176c.11-1.235 1.106-2.22 2.223-2.22 1.225 0 2.222.996 2.222 2.22a2.225 2.225 0 0 1-2.222 2.223c-1.268 0-2.223-.955-2.223-2.223zm15.815 12.378l-.853.854c-.069.07-.107.107-.152.197-.913 1.38-2.136 2.491-3.651 3.332l-.439.244-2.533-4.627h7.628zm11.827-6.436l.664.23c2.164.753 3.617 2.822 3.617 5.148v28.804l-.8-.598a7.474 7.474 0 0 0-3.079-1.387l-.402-.08V13.315zm6.561 5.296c0-4.247-3.455-7.702-7.702-7.702-.629 0-1.141.511-1.141 1.14v5.421H29.635l-3.267-5.88.469-.234c1.52-.76 2.429-2.249 2.429-3.983 0-1.88-1.243-3.607-3.021-4.2l-.342-.113V1.14a1.14 1.14 0 0 0-2.281 0v1.92l-.342.113c-1.778.593-3.02 2.32-3.02 4.2 0 1.668.934 3.196 2.438 3.987l.453.238-3.26 5.872H7.292C3.339 17.47 0 20.922 0 25.008V59.54a6.315 6.315 0 0 0 6.308 6.31c2.872 0 5.371-1.97 6.077-4.79l.093-.379h36.481c4.182 0 7.637-3.18 7.866-7.237V18.611z"/>
        <path fill="#000" d="M30.6 45.867a5.898 5.898 0 0 1-.866 2.09.784.784 0 0 0 .01.75l.816 1.103-.47.469-1.088-.804c-.2-.197-.527-.202-.778-.015a5.851 5.851 0 0 1-2.082.862c-.267.066-.446.267-.507.569l-.191 1.34h-.663l-.195-1.351c-.055-.23-.233-.491-.51-.56a5.871 5.871 0 0 1-2.09-.867.79.79 0 0 0-.75.01l-1.102.816-.468-.467.8-1.04a.555.555 0 0 0 .155-.396.548.548 0 0 0-.137-.381 5.845 5.845 0 0 1-.862-2.082c-.066-.263-.271-.447-.57-.507l-1.341-.191v-.662l1.354-.195c.228-.056.489-.235.558-.511.147-.733.444-1.45.868-2.088.165-.33.18-.58.05-.836l-.825-1.121.468-.468 1.038.803a.57.57 0 0 0 .399.152.538.538 0 0 0 .376-.135c.65-.4 1.31-.658 2.085-.813.264-.066.449-.271.507-.57l.192-1.34h.663l.194 1.354c.057.228.234.488.51.558.85.17 1.528.45 2.09.868.244.123.49.12.75-.011l1.102-.816.47.469-.804 1.088c-.198.199-.203.53-.015.78.417.625.714 1.34.862 2.08.066.268.267.448.569.508l1.34.192v.662l-1.352.194c-.23.057-.49.236-.56.51m2.675-2.582l-1.467-.195a5.716 5.716 0 0 0-.728-1.695l.83-1.22a.684.684 0 0 0-.063-.89l-1.241-1.24a.612.612 0 0 0-.836-.063l-1.174.879a6.364 6.364 0 0 0-1.69-.723l-.197-1.477c-.066-.328-.335-.565-.64-.565h-1.81c-.305 0-.574.237-.641.573l-.196 1.467a5.754 5.754 0 0 0-1.693.726l-1.223-.88a.672.672 0 0 0-.49-.13.528.528 0 0 0-.346.193l-1.28 1.282c-.25.188-.285.568-.073.85l.928 1.172a6.181 6.181 0 0 0-.723 1.689l-1.477.196c-.328.067-.566.335-.566.64v1.81c0 .306.238.575.574.642l1.467.195c.145.59.378 1.13.726 1.693l-.88 1.172a.661.661 0 0 0-.13.492.519.519 0 0 0 .193.343l1.293 1.293c.243.24.57.264.836.063l1.173-.88a6.394 6.394 0 0 0 1.69.726l.198 1.475c.066.328.335.567.64.567h1.81c.305 0 .574-.24.64-.575l.197-1.465a5.74 5.74 0 0 0 1.69-.727l1.193.89c.109.055.232.118.366.118.197 0 .38-.07.503-.192l1.24-1.241a.612.612 0 0 0 .063-.836l-.88-1.172c.324-.522.567-1.09.725-1.692l1.477-.196c.328-.067.566-.335.566-.64v-1.81c0-.306-.238-.575-.574-.642"/>
        <path stroke="#000" stroke-width=".5" d="M30.6 45.867a5.898 5.898 0 0 1-.866 2.09.784.784 0 0 0 .01.75l.816 1.103-.47.469-1.088-.804c-.2-.197-.527-.202-.778-.015a5.851 5.851 0 0 1-2.082.862c-.267.066-.446.267-.507.569l-.191 1.34h-.663l-.195-1.351c-.055-.23-.233-.491-.51-.56a5.871 5.871 0 0 1-2.09-.867.79.79 0 0 0-.75.01l-1.102.816-.468-.467.8-1.04a.555.555 0 0 0 .155-.396.548.548 0 0 0-.137-.381 5.845 5.845 0 0 1-.862-2.082c-.066-.263-.271-.447-.57-.507l-1.341-.191v-.662l1.354-.195c.228-.056.489-.235.558-.511.147-.733.444-1.45.868-2.088.165-.33.18-.58.05-.836l-.825-1.121.468-.468 1.038.803a.57.57 0 0 0 .399.152.538.538 0 0 0 .376-.135c.65-.4 1.31-.658 2.085-.813.264-.066.449-.271.507-.57l.192-1.34h.663l.194 1.354c.057.228.234.488.51.558.85.17 1.528.45 2.09.868.244.123.49.12.75-.011l1.102-.816.47.469-.804 1.088c-.198.199-.203.53-.015.78.417.625.714 1.34.862 2.08.066.268.267.448.569.508l1.34.192v.662l-1.352.194c-.23.057-.49.236-.56.51zm2.675-2.582l-1.467-.195a5.716 5.716 0 0 0-.728-1.695l.83-1.22a.684.684 0 0 0-.063-.89l-1.241-1.24a.612.612 0 0 0-.836-.063l-1.174.879a6.364 6.364 0 0 0-1.69-.723l-.197-1.477c-.066-.328-.335-.565-.64-.565h-1.81c-.305 0-.574.237-.641.573l-.196 1.467a5.754 5.754 0 0 0-1.693.726l-1.223-.88a.672.672 0 0 0-.49-.13.528.528 0 0 0-.346.193l-1.28 1.282c-.25.188-.285.568-.073.85l.928 1.172a6.181 6.181 0 0 0-.723 1.689l-1.477.196c-.328.067-.566.335-.566.64v1.81c0 .306.238.575.574.642l1.467.195c.145.59.378 1.13.726 1.693l-.88 1.172a.661.661 0 0 0-.13.492.519.519 0 0 0 .193.343l1.293 1.293c.243.24.57.264.836.063l1.173-.88a6.394 6.394 0 0 0 1.69.726l.198 1.475c.066.328.335.567.64.567h1.81c.305 0 .574-.24.64-.575l.197-1.465a5.74 5.74 0 0 0 1.69-.727l1.193.89c.109.055.232.118.366.118.197 0 .38-.07.503-.192l1.24-1.241a.612.612 0 0 0 .063-.836l-.88-1.172c.324-.522.567-1.09.725-1.692l1.477-.196c.328-.067.566-.335.566-.64v-1.81c0-.306-.238-.575-.574-.642z"/>
        <path fill="#000" d="M25.138 47.784a2.982 2.982 0 0 1-2.98-2.98 2.981 2.981 0 0 1 2.98-2.976 2.981 2.981 0 0 1 2.979 2.977 2.982 2.982 0 0 1-2.98 2.979m0-7.241a4.267 4.267 0 0 0-4.262 4.262c0 2.39 1.872 4.263 4.263 4.263a4.267 4.267 0 0 0 4.263-4.263 4.267 4.267 0 0 0-4.263-4.262"/>
        <path stroke="#000" stroke-width=".5" d="M25.138 47.784a2.982 2.982 0 0 1-2.98-2.98 2.981 2.981 0 0 1 2.98-2.976 2.981 2.981 0 0 1 2.979 2.977 2.982 2.982 0 0 1-2.98 2.979zm0-7.241a4.267 4.267 0 0 0-4.263 4.262c0 2.39 1.872 4.263 4.263 4.263a4.267 4.267 0 0 0 4.263-4.263 4.267 4.267 0 0 0-4.263-4.262z"/>
    </g>
</svg>
